<svg version="1.2" xmlns="http://www.w3.org/2000/svg" viewBox="0 0 175 175" width="175" height="175">
	<title>skull-svgrepo-com-svg</title>
	<style>
		.s0 { fill: #b13967 } 
	</style>
	<g id="Layer">
		<path id="Layer" fill-rule="evenodd" class="s0" d="m28 45.1c-1.4-3.4-0.8-7.8 1.3-16.4 2.1-8.5 8.2-13.3 19.8-13.3 11.6 0 17.7 4.8 19.8 13.3 2.1 8.6 2.6 13 1.2 16.4-1.9 4.6-7.6 6.9-11 7.9v3.9c0 0.7-0.6 1.3-1.3 1.3h-3.3c-0.7 0-1.3-0.6-1.3-1.3v-3.3h-1.1v3.3c0 0.7-0.6 1.3-1.4 1.3h-3.2c-0.8 0-1.4-0.6-1.4-1.3v-3.3h-1.1v3.3c0 0.7-0.6 1.3-1.3 1.3h-3.3c-0.7 0-1.3-0.6-1.3-1.3v-3.9c-3.4-1-9.1-3.3-11.1-7.9zm24.7-7c0.6 3.5 3.6 5.9 6.7 5.4 3.1-0.5 5.1-3.8 4.5-7.3-0.7-3.5-3.7-5.9-6.7-5.4-3.1 0.5-5.1 3.8-4.5 7.3zm-3.6 3.5l-4.3 5.2h8.6zm-10.3 1.9c3.1 0.5 6.1-2 6.7-5.5 0.6-3.5-1.4-6.7-4.5-7.2-3-0.5-6 1.9-6.7 5.4-0.6 3.5 1.4 6.8 4.5 7.3z"/>
		<path id="Layer" class="s0" d="m76.1 71.8c-2.4-1-5.1-0.1-6.4 1.9-0.9 1.2-2.3 0.7-3 0.5-0.5-0.3-5.5-2.5-11.6-5.2 5.2-2.4 9.5-4.3 10.4-4.7 2.3-1.1 4-1.7 5.6-0.4 1.4 1.8 3.9 2.5 6.1 1.5 2.5-1.1 3.5-3.9 2.3-6.3-0.7-1.4-2-2.3-3.5-2.6 0.7-1.2 0.8-2.8 0.1-4.3-1.2-2.3-4.1-3.3-6.6-2.2-2.1 1-3.2 3.2-2.6 5.3 0.1 1.6-2.3 2.9-3.8 3.6-1.1 0.5-7.9 3.7-15.1 7-6.8-3-13-5.8-14.1-6.2-2.4-1.1-3.9-2-3.9-3.9 0.6-2.2-0.5-4.5-2.7-5.5-2.4-1.1-5.4-0.1-6.5 2.3-0.7 1.4-0.6 3 0.2 4.3-1.5 0.3-2.9 1.2-3.5 2.6-1.2 2.4-0.1 5.2 2.4 6.3 2.1 0.9 4.6 0.3 5.9-1.5 1.2-1.1 3.8-0.1 5.3 0.6 0.8 0.3 4.9 2.1 9.9 4.2-6.1 2.8-11.2 5.1-12 5.4q-0.7 0.2-1.3 0.1 0-0.1 0-0.2c-1.2-2.3-4.2-3.3-6.6-2.2-2.5 1.1-3.5 3.9-2.3 6.3 0.7 1.4 2 2.3 3.6 2.6-0.8 1.2-0.9 2.8-0.2 4.3 1.2 2.3 4.1 3.3 6.6 2.2 2.3-1.1 3.3-3.7 2.5-5.9-0.4-1.4 0.9-2.2 1.6-2.5 0.5-0.2 7.7-3.5 15.2-6.9 8.1 3.5 16.4 7.1 17.3 7.7q0.6 0.4 0.9 0.9-0.1 0.1-0.1 0.2c-1.1 2.3-0.1 5.1 2.4 6.2 2.5 1.1 5.4 0.1 6.5-2.3 0.7-1.4 0.6-3-0.2-4.3 1.5-0.3 2.9-1.2 3.6-2.6 1.1-2.4 0-5.2-2.4-6.3z"/>
		<path id="Layer copy" fill-rule="evenodd" class="s0" d="m110 45.1c-1.4-3.4-0.8-7.8 1.3-16.4 2.1-8.5 8.2-13.3 19.8-13.3 11.6 0 17.7 4.8 19.8 13.3 2.1 8.6 2.6 13 1.2 16.4-1.9 4.6-7.6 6.9-11 7.9v3.9c0 0.7-0.6 1.3-1.3 1.3h-3.3c-0.7 0-1.3-0.6-1.3-1.3v-3.3h-1.1v3.3c0 0.7-0.6 1.3-1.4 1.3h-3.2c-0.8 0-1.4-0.6-1.4-1.3v-3.3h-1.1v3.3c0 0.7-0.6 1.3-1.3 1.3h-3.3c-0.7 0-1.3-0.6-1.3-1.3v-3.9c-3.4-1-9.1-3.3-11.1-7.9zm24.7-7c0.6 3.5 3.6 5.9 6.7 5.4 3.1-0.5 5.1-3.8 4.5-7.3-0.7-3.5-3.7-5.9-6.7-5.4-3.1 0.5-5.1 3.8-4.5 7.3zm-3.6 3.5l-4.3 5.2h8.6zm-10.3 1.9c3.1 0.5 6.1-2 6.7-5.5 0.6-3.5-1.4-6.7-4.5-7.2-3-0.5-6 1.9-6.7 5.4-0.6 3.5 1.4 6.8 4.5 7.3z"/>
		<path id="Layer copy 2" class="s0" d="m158.1 71.8c-2.4-1-5.1-0.1-6.4 1.9-0.9 1.2-2.3 0.7-3 0.5-0.5-0.3-5.5-2.5-11.6-5.2 5.2-2.4 9.5-4.3 10.4-4.7 2.3-1.1 4-1.7 5.6-0.4 1.4 1.8 3.9 2.5 6.1 1.5 2.5-1.1 3.5-3.9 2.3-6.3-0.7-1.4-2-2.3-3.5-2.6 0.7-1.2 0.8-2.8 0.1-4.3-1.2-2.3-4.1-3.3-6.6-2.2-2.1 1-3.2 3.2-2.6 5.3 0.1 1.6-2.3 2.9-3.8 3.6-1.1 0.5-7.9 3.7-15.1 7-6.8-3-13-5.8-14.1-6.2-2.4-1.1-3.9-2-3.9-3.9 0.6-2.2-0.5-4.5-2.7-5.5-2.4-1.1-5.4-0.1-6.5 2.3-0.7 1.4-0.6 3 0.2 4.3-1.5 0.3-2.9 1.2-3.5 2.6-1.2 2.4-0.1 5.2 2.4 6.3 2.1 0.9 4.6 0.3 5.9-1.5 1.2-1.1 3.8-0.1 5.3 0.6 0.8 0.3 4.9 2.1 9.9 4.2-6.1 2.8-11.2 5.1-12 5.4q-0.7 0.2-1.3 0.1 0-0.1 0-0.2c-1.2-2.3-4.2-3.3-6.6-2.2-2.5 1.1-3.5 3.9-2.3 6.3 0.7 1.4 2 2.3 3.6 2.6-0.8 1.2-0.9 2.8-0.2 4.3 1.2 2.3 4.1 3.3 6.6 2.2 2.3-1.1 3.3-3.7 2.5-5.9-0.4-1.4 0.9-2.2 1.6-2.5 0.5-0.2 7.7-3.5 15.2-6.9 8.1 3.5 16.4 7.1 17.3 7.7q0.6 0.4 0.9 0.9-0.1 0.1-0.1 0.2c-1.1 2.3-0.1 5.1 2.4 6.2 2.5 1.1 5.4 0.1 6.5-2.3 0.7-1.4 0.6-3-0.2-4.3 1.5-0.3 2.9-1.2 3.6-2.6 1.1-2.4 0-5.2-2.4-6.3z"/>
	</g>
</svg>