<svg version="1.2" xmlns="http://www.w3.org/2000/svg" viewBox="0 0 175 175" width="175" height="175">
	<title>smog-svgrepo-com-svg</title>
	<style>
		.s0 { fill: #b13967 } 
	</style>
	<path id="Layer" class="s0" d="m50.5 72.7c0-2 1.6-3.6 3.6-3.6h78.3c2 0 3.6 1.6 3.6 3.6 0 2-1.6 3.5-3.6 3.5h-78.3c-2 0-3.6-1.5-3.6-3.5zm-9.5 14.2c0-1.9 1.6-3.5 3.6-3.5h16.6c2 0 3.5 1.6 3.5 3.5 0 2-1.5 3.6-3.5 3.6h-16.6c-2 0-3.6-1.6-3.6-3.6zm30.9 0c0-1.9 1.6-3.5 3.5-3.5h47.5c2 0 3.6 1.6 3.6 3.5 0 2-1.6 3.6-3.6 3.6h-47.5c-1.9 0-3.5-1.6-3.5-3.6zm-9.5-29.7h23.1c3.4 3 7.7 4.8 12.5 4.8 4.8 0 9.1-1.8 12.5-4.8h8.9c9.2 0 16.6-7.4 16.6-16.6 0-9.2-7.4-16.6-16.6-16.6-2.7 0-5.2 0.7-7.4 1.8-3.6-6.7-10.6-11.3-18.8-11.3-6 0-11.5 2.6-15.4 6.6-3.9-4-9.3-6.6-15.4-6.6-11.8 0-21.4 9.6-21.4 21.4 0 11.8 9.6 21.3 21.4 21.3z"/>
</svg>