<svg version="1.2" xmlns="http://www.w3.org/2000/svg" viewBox="0 0 175 175" width="175" height="175">
	<title>map-point-rotate-svgrepo-com-svg</title>
	<style>
		.s0 { fill: #b13967 } 
	</style>
	<path id="Layer" fill-rule="evenodd" class="s0" d="m66.3 36.7c0-12.2 9.8-22.1 21.8-22.1 12 0 21.7 9.9 21.7 22.1 0 12.1-6.9 26.3-17.8 31.3-2.5 1.2-5.4 1.2-7.9 0-10.8-5-17.8-19.2-17.8-31.3zm29-0.4c0-4-3.2-7.2-7.2-7.2-4 0-7.3 3.2-7.3 7.2 0 4 3.3 7.3 7.3 7.3 4 0 7.2-3.3 7.2-7.3z"/>
	<path id="Layer" fill-rule="evenodd" class="s0" d="m57.7 60c1 1.2 0.8 2.9-0.4 3.8-2.1 1.7-2.8 3.1-2.8 4.2 0 0.9 0.4 2 1.6 3.2 1.3 1.3 3.1 2.5 5.7 3.7 4.6 2 10.8 3.6 18.1 4.3v-1.7c0-1 0.6-2 1.6-2.4 1-0.5 2.1-0.3 2.9 0.4l5.4 4.7c0.6 0.6 1 1.3 1 2.1 0 0.8-0.4 1.5-1 2l-5.4 4.8c-0.8 0.7-1.9 0.8-2.9 0.4-1-0.4-1.6-1.4-1.6-2.5v-2.4c-7.9-0.6-15-2.3-20.3-4.8-3-1.3-5.5-2.9-7.4-4.8-1.8-1.9-3.1-4.3-3.1-7 0-3.4 2.1-6.3 4.8-8.5 1.2-0.9 2.9-0.7 3.8 0.5zm60.7 0c0.9-1.2 2.6-1.4 3.8-0.5 2.7 2.2 4.8 5.1 4.8 8.5 0 5-4.2 8.7-9.2 11.3-5.2 2.6-12.4 4.4-20.4 5.2-1.5 0.2-2.8-0.9-3-2.4-0.1-1.5 0.9-2.8 2.4-3 7.6-0.7 14.1-2.5 18.5-4.7 4.7-2.4 6.3-4.7 6.3-6.4 0-1.1-0.7-2.5-2.8-4.2-1.1-0.9-1.3-2.6-0.4-3.8z"/>
</svg>